<svg width="32" height="32" viewBox="0 0 32 32" fill="none" xmlns="http://www.w3.org/2000/svg">
<g clip-path="url(#clip0_13_2)">
<mask id="mask0_13_2" style="mask-type:alpha" maskUnits="userSpaceOnUse" x="-8" y="-4" width="44" height="45">
<path d="M14.3359 -2.50281C14.8305 -2.82676 15.4088 -2.99933 16 -2.99933C16.5912 -2.99933 17.1695 -2.82676 17.6641 -2.50281H35.5C36.3566 -1.94231 33.8125 8.69928 33.8125 9.7237V22.2764C33.8125 23.3008 36.355 36.9395 35.5 37.5L18.5729 40.1471C18.0784 40.471 16.5912 37.9118 16 37.9118C15.4088 37.9118 11.488 39.9122 10.9935 39.5882L-4.00002 36C-4.42151 35.7239 -1.2089 24.1631 -1.44829 23.7197C-1.68768 23.2763 -1.81285 22.7803 -1.8125 22.2764V9.7237C-1.8125 8.69928 -7.85501 -3.4395 -7.00001 -4L14.3359 -2.50281ZM17.1875 8.87503V10.0625H7.6875C7.37255 10.0625 7.07051 10.1876 6.84781 10.4103C6.62511 10.633 6.5 10.9351 6.5 11.25V16H5.70833C5.60335 16 5.50267 16.0417 5.42843 16.116C5.3542 16.1902 5.3125 16.2909 5.3125 16.3959V20.3542C5.3125 20.5727 5.48983 20.75 5.70833 20.75H6.5V23.125C6.5 23.7821 7.032 24.3125 7.6875 24.3125H24.3125C24.6274 24.3125 24.9295 24.1874 25.1522 23.9647C25.3749 23.742 25.5 23.44 25.5 23.125V20.75H26.2917C26.3966 20.75 26.4973 20.7083 26.5716 20.6341C26.6458 20.5599 26.6875 20.4592 26.6875 20.3542V16.3959C26.6875 16.2909 26.6458 16.1902 26.5716 16.116C26.4973 16.0417 26.3966 16 26.2917 16H25.5V11.25C25.5 10.9351 25.3749 10.633 25.1522 10.4103C24.9295 10.1876 24.6274 10.0625 24.3125 10.0625H18.375V5.70836C18.375 5.60338 18.3333 5.5027 18.2591 5.42846C18.1848 5.35423 18.0841 5.31253 17.9792 5.31253H15.2083C15.1033 5.31253 15.0027 5.35423 14.9284 5.42846C14.8542 5.5027 14.8125 5.60338 14.8125 5.70836V8.4792C14.8125 8.6977 14.9898 8.87503 15.2083 8.87503H17.1875ZM22.3903 16.9326L19.9013 19.4216C19.8114 19.5113 19.6895 19.5617 19.5625 19.5617C19.4355 19.5617 19.3136 19.5113 19.2237 19.4216L17.7242 17.9222C17.6345 17.8323 17.5841 17.7104 17.5841 17.5834C17.5841 17.4563 17.6345 17.3345 17.7242 17.2445L18.2341 16.7347C18.324 16.645 18.4459 16.5946 18.5729 16.5946C18.7 16.5946 18.8218 16.645 18.9117 16.7347L19.5609 17.3854L21.2028 15.7451C21.2928 15.6554 21.4146 15.605 21.5417 15.605C21.6687 15.605 21.7906 15.6554 21.8805 15.7451L22.3903 16.2549C22.4801 16.3449 22.5304 16.4667 22.5304 16.5938C22.5304 16.7208 22.4801 16.8427 22.3903 16.9326ZM11.9847 19.42V19.4216C11.8947 19.5113 11.7729 19.5617 11.6458 19.5617C11.5188 19.5617 11.3969 19.5113 11.307 19.4216L9.806 17.9222C9.76138 17.8778 9.72598 17.825 9.70182 17.7668C9.67766 17.7087 9.66522 17.6463 9.66522 17.5834C9.66522 17.5204 9.67766 17.4581 9.70182 17.3999C9.72598 17.3418 9.76138 17.289 9.806 17.2445L10.3174 16.7347C10.4073 16.6455 10.5288 16.5954 10.6555 16.5954C10.7821 16.5954 10.9036 16.6455 10.9935 16.7347L11.6458 17.3854L13.2862 15.7435C13.376 15.6543 13.4976 15.6042 13.6242 15.6042C13.7509 15.6042 13.8724 15.6543 13.9622 15.7435L14.4737 16.2534C14.5634 16.3433 14.6138 16.4652 14.6138 16.5922C14.6138 16.7192 14.5634 16.8411 14.4737 16.931L11.9847 19.42Z" fill="black"/>
</mask>
<g mask="url(#mask0_13_2)">
<circle cx="16" cy="16" r="16" fill="#1B2834"/>
</g>
</g>
<defs>
<clipPath id="clip0_13_2">
<rect width="32" height="32" fill="white"/>
</clipPath>
</defs>
</svg>
